<svg t="1701436183482" class="icon" viewBox="0 0 1024 1024" version="1.1" xmlns="http://www.w3.org/2000/svg" p-id="4271" width="200" height="200"><path d="M509.4 63.6c-246.9 0-447.1 200.2-447.1 447.1s200.2 447.1 447.1 447.1c246.9 0 447.1-200.2 447.1-447.1S756.3 63.6 509.4 63.6z m-0.1 717.5c-17.3 0-31.4-14-31.4-31.4s14-31.4 31.4-31.4c17.3 0 31.4 14 31.4 31.4s-14 31.4-31.4 31.4z m43.9-178.6c-7.8 1.9-13.5 8.6-13.5 16.6v43.8c0 16.8-13.6 30.4-30.3 30.4-16.8 0-30.4-13.6-30.4-30.4v-90.7c0-13.9 11.2-25.1 25.1-25.1 67.3 0 126.1-51.8 128.2-119 2.8-89.7-90.9-159-184.9-111.6-40.2 20.3-59.4 63.8-61.1 108.8-0.7 19.3-19.3 33.9-39.7 27.8-13-3.9-21-16.2-21-29.8 0.5-111.3 100.3-199.5 215.2-180.3 76.6 12.8 138 75 150 151.7 15.4 98.7-48.4 185.9-137.6 207.8z" fill="" p-id="4272"></path></svg>