<svg t="1701512480901" class="icon" viewBox="0 0 1024 1024" version="1.1" xmlns="http://www.w3.org/2000/svg" p-id="5297" width="200" height="200"><path d="M490.38 491.71h-195.8c-107.96 0-195.8-87.84-195.8-195.8 0-107.95 87.84-195.79 195.8-195.79s195.8 87.84 195.8 195.79v195.8z m-195.8-337.09c-77.91 0-141.29 63.38-141.29 141.29s63.39 141.3 141.29 141.3h141.29v-141.3c0-77.91-63.38-141.29-141.29-141.29zM729.42 491.71h-195.8v-195.8c0-107.95 87.84-195.79 195.8-195.79s195.8 87.84 195.8 195.79c0 107.97-87.84 195.8-195.8 195.8z m-141.29-54.5h141.29c77.91 0 141.29-63.39 141.29-141.3s-63.39-141.29-141.29-141.29S588.13 218 588.13 295.91v141.3zM294.58 923.88c-107.96 0-195.8-87.84-195.8-195.79s87.84-195.79 195.8-195.79h195.8v195.79c0 107.95-87.84 195.79-195.8 195.79z m0-337.08c-77.91 0-141.29 63.38-141.29 141.29s63.39 141.29 141.29 141.29S435.87 806 435.87 728.09V586.8H294.58zM729.42 923.88c-107.96 0-195.8-87.84-195.8-195.79V532.3h195.8c107.96 0 195.8 87.84 195.8 195.79s-87.84 195.79-195.8 195.79zM588.13 586.8v141.29c0 77.91 63.39 141.29 141.29 141.29S870.71 806 870.71 728.09 807.33 586.8 729.42 586.8H588.13z" p-id="5298"></path></svg>