<svg t="1701512529571" class="icon" viewBox="0 0 1024 1024" version="1.1" xmlns="http://www.w3.org/2000/svg" p-id="6270" width="200" height="200"><path d="M512 545.152c229.76 0 416 126.848 416 270.848 0 130.304-152.448 142.72-351.68 143.872h-128.64C248.448 958.72 96 946.304 96 816c0-144 186.24-270.848 416-270.848z m0 96c-180.16 0-320 92.352-320 174.848 0 30.688 56.192 46.304 272.32 47.872L512 864l49.6-0.192c215.552-1.92 270.4-17.12 270.4-47.808 0-82.496-139.84-174.848-320-174.848zM512 64a224 224 0 1 1 0 448 224 224 0 0 1 0-448z m0 96a128 128 0 1 0 0 256 128 128 0 0 0 0-256z"  p-id="6271"></path></svg>